<svg xmlns="http://www.w3.org/2000/svg" viewBox="0 0 256 256"><defs><style>.cls-1{fill:#fff;}</style></defs><title>TCFAsset 5SVG</title><g id="Layer_2" data-name="Layer 2"><g id="Layer_1-2" data-name="Layer 1"><circle class="cls-1" cx="128" cy="128" r="128"/><circle cx="127" cy="128.00044" r="115"/><circle class="cls-1" cx="127.5" cy="127.50044" r="100.5"/><rect class="cls-1" x="9" y="68.00044" width="237" height="120" rx="17.52894" ry="17.52894"/><path d="M26.26787,81.00044H81.78511l-2.41667,16H61.10365l-11.40206,78H30.382l11.25624-78H24.061ZM162.878,86.72088l-2.57449,17.65366a34.02065,34.02065,0,0,0-22.43486-8.0177q-14.41716,0-25.23,10.5922t-10.81287,24.56648q0,12.50468,7.76025,20.33849t20.11782,7.83381q11.32776,0,24.4209-7.135l-2.86872,19.6397a52.19164,52.19164,0,0,1-24.27378,6.17878q-21.47862,0-33.61551-13.53447a46.53915,46.53915,0,0,1-12.13689-32.14437q0-24.71282,16.25608-39.3882,16.25608-14.6746,35.6751-14.6746Q150.88817,78.62962,162.878,86.72088Zm13.97175-5.72044h52.55724l-2.41667,16H194.54453l-3.28811,22h30.58144l-2.36075,16H188.67653l-5.97846,40H162.8893Z"/></g></g></svg>