<svg xmlns="http://www.w3.org/2000/svg" viewBox="0 0 183.16566 50.92969"><defs><style>.cls-1{stroke:#000;stroke-miterlimit:10;}</style></defs><title>Asset 9</title><g id="Layer_2" data-name="Layer 2"><g id="Layer_1-2" data-name="Layer 1"><path d="M.40136,0H10.49795l-.4395,2H6.87154L4.67883,17H.96352L3.12819,2H0Z"/><path d="M20.62786,12H12.68949q.31372,2.49608,2.48245,2.49608a3.12744,3.12744,0,0,0,2.55064-1.4049l2.37333,1.22758a6.77127,6.77127,0,0,1-5.36044,2.878,5.48777,5.48777,0,0,1-4.0442-1.56858,5.41781,5.41781,0,0,1-1.5754-4.0101,6.3535,6.3535,0,0,1,1.79363-4.53524,5.71056,5.71056,0,0,1,4.28972-1.88911,5.03252,5.03252,0,0,1,3.98964,1.69134A7.44875,7.44875,0,0,1,20.62786,12Zm-7.77469-2h4.71937A1.98021,1.98021,0,0,0,15.322,8.13135,2.54859,2.54859,0,0,0,12.85317,10Z"/><path d="M31.21924,6.5461,31.44441,5h3.48286l-1.773,12H29.69973l.18144-1.24823A5.76085,5.76085,0,0,1,26.18791,17.227a4.15251,4.15251,0,0,1-3.3023-1.5461A5.83487,5.83487,0,0,1,21.57178,11.766a7.661,7.661,0,0,1,1.65278-4.97872,4.99368,4.99368,0,0,1,4.00827-2.04255A5.76349,5.76349,0,0,1,31.21924,6.5461Zm-6.0084,5.29005a2.739,2.739,0,0,0,.62629,1.88229,2.13905,2.13905,0,0,0,1.68821.70927,2.721,2.721,0,0,0,2.11019-.98207,3.52637,3.52637,0,0,0,.87181-2.42789,2.62444,2.62444,0,0,0-.72859-1.88229,2.37622,2.37622,0,0,0-1.79022-.76383,2.44762,2.44762,0,0,0-1.988.98207A3.83487,3.83487,0,0,0,25.21083,11.83615Z"/><path d="M40.01585,5,39.812,6.63a5.03025,5.03025,0,0,1,3.71572-1.88534,2.614,2.614,0,0,1,1.88593.65248,4.315,4.315,0,0,1,1.04965,2.04255q1.91312-2.695,4.20981-2.695,3.10372,0,3.104,4.12707a11.24474,11.24474,0,0,1-.08511,1.44681L52.79363,17H49.31432l.95035-6.85106a7.90758,7.90758,0,0,0,.08511-1.078q0-1.65957-1.35993-1.65957a2.03166,2.03166,0,0,0-1.5727.78753,3.85779,3.85779,0,0,0-.86407,1.979L45.50521,17H42.0519L43.059,9.96454a7.63842,7.63842,0,0,0,.05674-.78014q0-1.773-1.33274-1.773a2.18517,2.18517,0,0,0-1.59515.75916,3.40333,3.40333,0,0,0-.90012,1.922L38.29954,17H34.81786L36.53417,5Z"/><path d="M26.04777,21.46211l-.82031,5.625A10.84,10.84,0,0,0,18.079,24.53243a11.12983,11.12983,0,0,0-8.03906,3.375,10.63756,10.63756,0,0,0-3.44531,7.82764A8.81252,8.81252,0,0,0,9.0673,42.21553a8.62879,8.62879,0,0,0,6.41016,2.49609,16.40072,16.40072,0,0,0,7.78125-2.27344L22.34464,48.696a16.62987,16.62987,0,0,1-7.73438,1.96875q-6.84375,0-10.71094-4.3125A14.82881,14.82881,0,0,1,.03214,36.11006q0-7.87427,5.17969-12.55029A16.61664,16.61664,0,0,1,16.579,18.884,16.54808,16.54808,0,0,1,26.04777,21.46211Z"/><path d="M48.54777,40.04756A9.77374,9.77374,0,0,1,45.29,47.44209a11.09084,11.09084,0,0,1-7.875,3.05859A10.26331,10.26331,0,0,1,30.079,47.62959a9.23148,9.23148,0,0,1-3.02344-6.94922A10.36924,10.36924,0,0,1,30.29,33.11006a10.3447,10.3447,0,0,1,7.54688-3.23389,10.7604,10.7604,0,0,1,7.72266,2.83594A9.65708,9.65708,0,0,1,48.54777,40.04756Zm-15.44531.375a4.70053,4.70053,0,0,0,1.34766,3.43359A4.49578,4.49578,0,0,0,37.79,45.22725a4.4393,4.4393,0,0,0,3.35156-1.5,5.00338,5.00338,0,0,0,1.40625-3.53906A4.92907,4.92907,0,0,0,41.22355,36.614,4.56064,4.56064,0,0,0,37.79,35.24288a4.31685,4.31685,0,0,0-3.31641,1.51172A5.2651,5.2651,0,0,0,33.10246,40.42256Z"/><path d="M68.40974,17h5.74371L69.31213,50H63.56843l.23973-1.63716A11.57189,11.57189,0,0,1,57.91242,50.421,6.7887,6.7887,0,0,1,52.542,47.8483a9.51315,9.51315,0,0,1-2.18775-6.38493,12.67951,12.67951,0,0,1,2.76856-8.26766,8.3243,8.3243,0,0,1,6.649-3.40247,7.06931,7.06931,0,0,1,2.76856.52623,9.2526,9.2526,0,0,1,2.29008,1.37989q1.0393.85366,1.27367,1.01738ZM56.09464,40.77413a5.07442,5.07442,0,0,0,1.18164,3.49219,3.91307,3.91307,0,0,0,3.07617,1.33594,4.45666,4.45666,0,0,0,3.335-1.76953,5.86346,5.86346,0,0,0,1.55566-3.97266,4.92429,4.92429,0,0,0-1.16992-3.38672,3.76668,3.76668,0,0,0-2.94824-1.32422,4.60174,4.60174,0,0,0-3.56836,1.64063A5.7779,5.7779,0,0,0,56.09464,40.77413Z"/><path d="M94.06339,42H80.42277q.53906,4.28906,4.26563,4.28906A5.37393,5.37393,0,0,0,89.07121,43.875l4.07813,2.10938q-3.98437,4.94531-9.21094,4.94531a9.42973,9.42973,0,0,1-6.94922-2.69531,9.30951,9.30951,0,0,1-2.707-6.89062,10.91732,10.91732,0,0,1,3.082-7.793,9.81379,9.81379,0,0,1,7.37109-3.24561,8.64746,8.64746,0,0,1,6.85547,2.90625Q94.13371,36.11694,94.06339,42ZM80.704,38h8.10938q-.39844-3.21094-3.86719-3.21094Q81.96964,34.78906,80.704,38Z"/><path d="M100.06331,20h16.73533l-.75521,5H105.69707l-1.04622,7h9.73621l-.73773,5h-9.80221l-1.943,13H95.60786Z"/><path d="M121.09809,17h5.67541l-4.888,33h-5.72218Z"/><path d="M147.67543,39.93628a9.77374,9.77374,0,0,1-3.25781,7.39453,11.09084,11.09084,0,0,1-7.875,3.05859,10.26331,10.26331,0,0,1-7.33594-2.87109,9.23148,9.23148,0,0,1-3.02344-6.94922,10.36924,10.36924,0,0,1,3.23437-7.57031,10.34332,10.34332,0,0,1,7.54688-3.23437,10.7604,10.7604,0,0,1,7.72266,2.83594A9.65889,9.65889,0,0,1,147.67543,39.93628Zm-15.44531.375a4.70053,4.70053,0,0,0,1.34766,3.43359,4.49578,4.49578,0,0,0,3.33984,1.37109,4.4393,4.4393,0,0,0,3.35156-1.5,5.00338,5.00338,0,0,0,1.40625-3.53906,4.92907,4.92907,0,0,0-1.32422-3.57422,4.56064,4.56064,0,0,0-3.43359-1.37109,4.31685,4.31685,0,0,0-3.31641,1.51172A5.2651,5.2651,0,0,0,132.23012,40.31128Z"/><path d="M149.07582,30H154.395l2.9078,10.94563L163.804,30h4.44444l2.86052,10.94563L177.53918,30h5.62648L171.43989,50h-3.23877l-3.28605-12.29314L157.70466,50h-3.40426Z"/><rect class="cls-1" x="52.62198" y="14.5" width="130" height="2"/></g></g></svg>