<svg xmlns="http://www.w3.org/2000/svg" viewBox="0 0 183.16566 51.17364"><defs><style>.cls-1{stroke:#000;stroke-miterlimit:10;}</style></defs><title>Asset 6SVG</title><g id="Layer_2" data-name="Layer 2"><g id="Layer_1-2" data-name="Layer 1"><path d="M.40136,0H10.49795l-.4395,2.90983H6.78275L4.656,17.459H1.05232L3.15191,2.90983H0Z"/><path d="M20.62786,12.80323H12.68949q.31372,2.49608,2.48245,2.49608a3.12744,3.12744,0,0,0,2.55064-1.4049L20.09591,15.122A6.77127,6.77127,0,0,1,14.73546,18a5.48777,5.48777,0,0,1-4.0442-1.56858,5.41781,5.41781,0,0,1-1.5754-4.0101,6.3535,6.3535,0,0,1,1.79363-4.53524A5.71056,5.71056,0,0,1,15.19921,5.997a5.03252,5.03252,0,0,1,3.98964,1.69134A7.44875,7.44875,0,0,1,20.62786,12.80323Zm-7.77469-2.32786h4.71937A1.98021,1.98021,0,0,0,15.322,8.60672,2.54859,2.54859,0,0,0,12.85317,10.47537Z"/><path d="M31.13,7.31928l.21841-1.49963h3.37817L33.0068,17.459H29.65614l.176-1.21071a5.58769,5.58769,0,0,1-3.58225,1.43084,4.02769,4.02769,0,0,1-3.203-1.49963,5.65949,5.65949,0,0,1-1.27434-3.79722,7.43072,7.43072,0,0,1,1.6031-4.82907A4.84358,4.84358,0,0,1,27.26339,5.572,5.59025,5.59025,0,0,1,31.13,7.31928ZM25.21083,12.223a2.739,2.739,0,0,0,.62629,1.88229,2.13905,2.13905,0,0,0,1.68821.70927,2.721,2.721,0,0,0,2.11019-.98207,3.52637,3.52637,0,0,0,.87181-2.42789,2.62444,2.62444,0,0,0-.72859-1.88229,2.37622,2.37622,0,0,0-1.79022-.76383,2.44762,2.44762,0,0,0-1.988.98207A3.83487,3.83487,0,0,0,25.21083,12.223Z"/><path d="M40.14455,5.81965l-.19777,1.581a4.87905,4.87905,0,0,1,3.604-1.82867,2.53546,2.53546,0,0,1,1.82925.63287A4.18529,4.18529,0,0,1,46.39815,8.186q1.85562-2.614,4.08327-2.614,3.01043,0,3.01072,4.003a10.90674,10.90674,0,0,1-.08255,1.40332L52.53825,17.459H49.16352l.92179-6.64513a7.66989,7.66989,0,0,0,.08255-1.04561q0-1.60969-1.31905-1.60969a1.97059,1.97059,0,0,0-1.52542.76386,3.74183,3.74183,0,0,0-.83809,1.91953l-1.01638,6.617H42.1194l.97682-6.824a7.40883,7.40883,0,0,0,.055-.75669q0-1.71976-1.29268-1.71976a2.11948,2.11948,0,0,0-1.54721.73634,3.301,3.301,0,0,0-.87306,1.86421L38.47983,17.459h-3.377l1.66472-11.6393Z"/><path d="M26.04777,21.84893l-.82031,5.625A10.84,10.84,0,0,0,18.079,24.91925a11.12983,11.12983,0,0,0-8.03906,3.375,10.63756,10.63756,0,0,0-3.44531,7.82764A8.81252,8.81252,0,0,0,9.0673,42.60235a8.62879,8.62879,0,0,0,6.41016,2.49609A16.40072,16.40072,0,0,0,23.25871,42.825l-.91406,6.25781a16.62987,16.62987,0,0,1-7.73438,1.96875q-6.84375,0-10.71094-4.3125A14.82881,14.82881,0,0,1,.03214,36.49688q0-7.87427,5.17969-12.55029A16.61664,16.61664,0,0,1,16.579,19.27081,16.54808,16.54808,0,0,1,26.04777,21.84893Z"/><path d="M48.54777,40.43438A9.77374,9.77374,0,0,1,45.29,47.82892a11.09084,11.09084,0,0,1-7.875,3.05859A10.26331,10.26331,0,0,1,30.079,48.01642a9.23148,9.23148,0,0,1-3.02344-6.94922A10.36924,10.36924,0,0,1,30.29,33.49688,10.3447,10.3447,0,0,1,37.83683,30.263a10.7604,10.7604,0,0,1,7.72266,2.83594A9.65708,9.65708,0,0,1,48.54777,40.43438Zm-15.44531.375A4.70053,4.70053,0,0,0,34.45011,44.243,4.49578,4.49578,0,0,0,37.79,45.61407a4.4393,4.4393,0,0,0,3.35156-1.5A5.00338,5.00338,0,0,0,42.54777,40.575a4.92907,4.92907,0,0,0-1.32422-3.57422A4.56064,4.56064,0,0,0,37.79,35.6297a4.31685,4.31685,0,0,0-3.31641,1.51172A5.2651,5.2651,0,0,0,33.10246,40.80938Z"/><path d="M68.40974,17.244h5.74371l-4.84132,33H63.56843l.23973-1.63716a11.57189,11.57189,0,0,1-5.89573,2.05815A6.7887,6.7887,0,0,1,52.542,48.09226a9.51315,9.51315,0,0,1-2.18775-6.38493,12.67951,12.67951,0,0,1,2.76856-8.26766,8.3243,8.3243,0,0,1,6.649-3.40247,7.06931,7.06931,0,0,1,2.76856.52623,9.2526,9.2526,0,0,1,2.29008,1.37989q1.0393.85366,1.27367,1.01738Zm-12.3151,23.917a5.07442,5.07442,0,0,0,1.18164,3.49219,3.91307,3.91307,0,0,0,3.07617,1.33594,4.45666,4.45666,0,0,0,3.335-1.76953,5.86346,5.86346,0,0,0,1.55566-3.97266,4.92429,4.92429,0,0,0-1.16992-3.38672,3.76668,3.76668,0,0,0-2.94824-1.32422,4.60174,4.60174,0,0,0-3.56836,1.64063A5.7779,5.7779,0,0,0,56.09464,41.16095Z"/><path d="M94.06339,42.244H80.42277q.53906,4.28906,4.26563,4.28906A5.37393,5.37393,0,0,0,89.07121,44.119l4.07813,2.10938q-3.98437,4.94531-9.21094,4.94531a9.42973,9.42973,0,0,1-6.94922-2.69531,9.30951,9.30951,0,0,1-2.707-6.89062,10.91732,10.91732,0,0,1,3.082-7.793,9.81379,9.81379,0,0,1,7.37109-3.24561,8.64746,8.64746,0,0,1,6.85547,2.90625Q94.13371,36.3609,94.06339,42.244Zm-13.35937-4h8.10938Q88.415,35.033,84.94621,35.033,81.96964,35.033,80.704,38.244Z"/><path d="M100.06331,20.13267h16.73533l-.75521,5H105.69707l-1.04622,7h9.73621l-.73773,5h-9.80221l-1.943,13H95.60786Z"/><path d="M121.09809,17.13267h5.67541l-4.888,33h-5.72218Z"/><path d="M147.67543,40.3231a9.77374,9.77374,0,0,1-3.25781,7.39453,11.09084,11.09084,0,0,1-7.875,3.05859,10.26331,10.26331,0,0,1-7.33594-2.87109,9.23148,9.23148,0,0,1-3.02344-6.94922,10.36924,10.36924,0,0,1,3.23437-7.57031,10.34332,10.34332,0,0,1,7.54688-3.23437,10.7604,10.7604,0,0,1,7.72266,2.83594A9.65889,9.65889,0,0,1,147.67543,40.3231Zm-15.44531.375a4.70053,4.70053,0,0,0,1.34766,3.43359,4.49578,4.49578,0,0,0,3.33984,1.37109,4.4393,4.4393,0,0,0,3.35156-1.5,5.00338,5.00338,0,0,0,1.40625-3.53906,4.92907,4.92907,0,0,0-1.32422-3.57422,4.56064,4.56064,0,0,0-3.43359-1.37109,4.31685,4.31685,0,0,0-3.31641,1.51172A5.2651,5.2651,0,0,0,132.23012,40.6981Z"/><path d="M149.07582,30.13267H154.395l2.9078,10.94563L163.804,30.13267h4.44444l2.86052,10.94563,6.43026-10.94563h5.62648l-11.72577,20h-3.23877l-3.28605-12.29314-7.2104,12.29314h-3.40426Z"/><rect class="cls-1" x="52.31165" y="14.49343" width="130" height="2.46542"/></g></g></svg>