<svg xmlns="http://www.w3.org/2000/svg" viewBox="0 0 141.79199 96.64355"><title>Asset 7SVG</title><g id="Layer_2" data-name="Layer 2"><g id="Layer_1-2" data-name="Layer 1"><path d="M.68966,0H18.03879l-.75521,5H11.6549L8.00039,30H1.80821L5.416,5H0Z"/><path d="M35.44518,22H21.80455q.53906,4.28906,4.26563,4.28906A5.37393,5.37393,0,0,0,30.453,23.875l4.07813,2.10938q-3.98438,4.94531-9.21094,4.94531A9.42973,9.42973,0,0,1,18.371,28.23438a9.30951,9.30951,0,0,1-2.707-6.89062,10.91732,10.91732,0,0,1,3.082-7.793,9.81254,9.81254,0,0,1,7.37109-3.24609,8.64746,8.64746,0,0,1,6.85547,2.90625Q35.51549,16.11719,35.44518,22ZM22.0858,18h8.10938q-.39844-3.21094-3.86719-3.21094Q23.35143,14.78906,22.0858,18Z"/><path d="M53.49113,12.57683,53.86643,10h5.80477L56.71611,30H50.95862l.3024-2.08038a9.60141,9.60141,0,0,1-6.15544,2.45863,6.92085,6.92085,0,0,1-5.50384-2.57683A9.72479,9.72479,0,0,1,37.412,21.2766a12.76832,12.76832,0,0,1,2.75463-8.29787,8.3228,8.3228,0,0,1,6.68046-3.40426A9.60581,9.60581,0,0,1,53.49113,12.57683Zm-10.171,8.4261a4.70641,4.70641,0,0,0,1.07617,3.23438,3.67557,3.67557,0,0,0,2.90088,1.21875,4.67557,4.67557,0,0,0,3.626-1.6875,6.05943,6.05943,0,0,0,1.498-4.17187,4.50963,4.50963,0,0,0-1.252-3.23437,4.08309,4.08309,0,0,0-3.07617-1.3125,4.20578,4.20578,0,0,0-3.416,1.6875A6.58953,6.58953,0,0,0,43.32018,21.00293Z"/><path d="M68.981,10l-.33983,2.71671q2.88268-3.142,6.19287-3.14224a4.35672,4.35672,0,0,1,3.14322,1.08747,7.19165,7.19165,0,0,1,1.74941,3.40426Q82.91522,9.57447,86.743,9.57447q5.17287,0,5.17336,6.87845a18.74123,18.74123,0,0,1-.14184,2.41135L90.27732,30H84.47846l1.58392-11.41844a13.1793,13.1793,0,0,0,.14184-1.79669q0-2.766-2.26655-2.766a3.38609,3.38609,0,0,0-2.62116,1.31255,6.42964,6.42964,0,0,0-1.44011,3.29836L78.13,30H72.37444l1.67849-11.72577a12.7307,12.7307,0,0,0,.09456-1.30024q0-2.95508-2.22124-2.95508a3.64194,3.64194,0,0,0-2.65859,1.26527,5.67222,5.67222,0,0,0-1.5002,3.20331L66.1205,30H60.3177l2.86052-20Z"/><path d="M42.1543,34.605,41.334,40.23a10.84,10.84,0,0,0-7.14844-2.55469,11.12983,11.12983,0,0,0-8.03906,3.375,10.63756,10.63756,0,0,0-3.44531,7.82764,8.81252,8.81252,0,0,0,2.47266,6.48047A8.62879,8.62879,0,0,0,31.584,57.85449a16.40072,16.40072,0,0,0,7.78125-2.27344l-.91406,6.25781a16.62987,16.62987,0,0,1-7.73437,1.96875q-6.84375,0-10.71094-4.3125a14.82881,14.82881,0,0,1-3.86719-10.24219q0-7.87427,5.17969-12.55029a16.61664,16.61664,0,0,1,11.36719-4.67578A16.54808,16.54808,0,0,1,42.1543,34.605Z"/><path d="M64.6543,53.19043A9.77374,9.77374,0,0,1,61.39648,60.585a11.09084,11.09084,0,0,1-7.875,3.05859,10.26331,10.26331,0,0,1-7.33594-2.87109,9.23148,9.23148,0,0,1-3.02344-6.94922A11.0522,11.0522,0,0,1,53.94336,43.019,10.7604,10.7604,0,0,1,61.666,45.855,9.65708,9.65708,0,0,1,64.6543,53.19043Zm-15.44531.375A4.70053,4.70053,0,0,0,50.55664,56.999a4.49578,4.49578,0,0,0,3.33984,1.37109,4.4393,4.4393,0,0,0,3.35156-1.5,5.00338,5.00338,0,0,0,1.40625-3.53906,4.92907,4.92907,0,0,0-1.32422-3.57422,4.56064,4.56064,0,0,0-3.43359-1.37109,4.31685,4.31685,0,0,0-3.31641,1.51172A5.2651,5.2651,0,0,0,49.209,53.56543Z"/><path d="M84.51627,30H90.26L85.41866,63H79.675l.23973-1.63716A11.57189,11.57189,0,0,1,74.01895,63.421a6.7887,6.7887,0,0,1-5.37047-2.57268,9.51315,9.51315,0,0,1-2.18775-6.38493,12.67951,12.67951,0,0,1,2.76856-8.26766,8.3243,8.3243,0,0,1,6.649-3.40247,7.06931,7.06931,0,0,1,2.76856.52623,9.2526,9.2526,0,0,1,2.29008,1.37989q1.0393.85366,1.27367,1.01738ZM72.20117,53.917a5.07442,5.07442,0,0,0,1.18164,3.49219A3.91307,3.91307,0,0,0,76.459,58.74512a4.45666,4.45666,0,0,0,3.335-1.76953,5.86346,5.86346,0,0,0,1.55566-3.97266,4.92429,4.92429,0,0,0-1.16992-3.38672A3.76668,3.76668,0,0,0,77.23144,48.292a4.60174,4.60174,0,0,0-3.56836,1.64063A5.7779,5.7779,0,0,0,72.20117,53.917Z"/><path d="M110.16992,55H96.5293q.53906,4.28906,4.26563,4.28906a5.37393,5.37393,0,0,0,4.38281-2.41406l4.07813,2.10938q-3.98437,4.94531-9.21094,4.94531a9.42973,9.42973,0,0,1-6.94922-2.69531,9.30951,9.30951,0,0,1-2.707-6.89062,10.91732,10.91732,0,0,1,3.082-7.793,9.81379,9.81379,0,0,1,7.37109-3.24561,8.64746,8.64746,0,0,1,6.85547,2.90625Q110.24023,49.11694,110.16992,55ZM96.81055,51h8.10938q-.39844-3.21094-3.86719-3.21094Q98.07617,47.78906,96.81055,51Z"/><path d="M58.68964,66H75.425l-.75521,5H64.3234l-1.04622,7H73.0134l-.73773,5H62.47345l-1.943,13H54.23419Z"/><path d="M79.72442,63h5.67541l-4.888,33H74.78962Z"/><path d="M106.30176,86.19043a9.77374,9.77374,0,0,1-3.25781,7.39453,11.09084,11.09084,0,0,1-7.875,3.05859A10.26331,10.26331,0,0,1,87.833,93.77246a9.23148,9.23148,0,0,1-3.02344-6.94922A11.05308,11.05308,0,0,1,95.59082,76.01855a10.7604,10.7604,0,0,1,7.72266,2.83594A9.65889,9.65889,0,0,1,106.30176,86.19043Zm-15.44531.375A4.70053,4.70053,0,0,0,92.2041,89.999a4.49578,4.49578,0,0,0,3.33984,1.37109,4.4393,4.4393,0,0,0,3.35156-1.5,5.00338,5.00338,0,0,0,1.40625-3.53906,4.92907,4.92907,0,0,0-1.32422-3.57422,4.56064,4.56064,0,0,0-3.43359-1.37109,4.31685,4.31685,0,0,0-3.31641,1.51172A5.2651,5.2651,0,0,0,90.85644,86.56543Z"/><path d="M107.70215,76h5.31915l2.9078,10.94563L122.43028,76h4.44444l2.86052,10.94563L136.16551,76H141.792L130.06622,96h-3.23877l-3.28605-12.29314L116.331,96h-3.40426Z"/></g></g></svg>